<svg xmlns="http://www.w3.org/2000/svg" xmlns:xlink="http://www.w3.org/1999/xlink" width="500" zoomAndPan="magnify" viewBox="0 0 375 374.999991" height="500" preserveAspectRatio="xMidYMid meet" version="1.0"><defs><clipPath id="54d26110c5"><path d="M 165 42.65625 L 259 42.65625 L 259 188 L 165 188 Z M 165 42.65625 " clip-rule="nonzero"/></clipPath><clipPath id="c6fabd061f"><path d="M 165 42.65625 L 211 42.65625 L 211 171 L 165 171 Z M 165 42.65625 " clip-rule="nonzero"/></clipPath><clipPath id="cc4561bff1"><path d="M 118 282 L 197 282 L 197 332.15625 L 118 332.15625 Z M 118 282 " clip-rule="nonzero"/></clipPath><clipPath id="5f1437ecff"><path d="M 127 278 L 197 278 L 197 332.15625 L 127 332.15625 Z M 127 278 " clip-rule="nonzero"/></clipPath><clipPath id="67ebca15ce"><path d="M 24 42.65625 L 285 42.65625 L 285 332.15625 L 24 332.15625 Z M 24 42.65625 " clip-rule="nonzero"/></clipPath><clipPath id="88ac2a19d3"><path d="M 24 42.65625 L 233 42.65625 L 233 259 L 24 259 Z M 24 42.65625 " clip-rule="nonzero"/></clipPath><clipPath id="71fac54774"><path d="M 24 42.65625 L 232 42.65625 L 232 188 L 24 188 Z M 24 42.65625 " clip-rule="nonzero"/></clipPath></defs><rect x="-37.5" width="450" fill="#ffffff" y="-37.499999" height="449.999989" fill-opacity="1"/><rect x="-37.5" width="450" fill="#ffffff" y="-37.499999" height="449.999989" fill-opacity="1"/><path fill="#b8d8ec" d="M 284.324219 256.386719 L 335.445312 133.820312 L 325.660156 126.296875 L 253.144531 220.128906 L 284.324219 256.386719 " fill-opacity="1" fill-rule="nonzero"/><path fill="#92bcd7" d="M 273.378906 243.660156 L 325.660156 126.296875 L 257.460938 214.546875 L 266.136719 235.238281 L 273.378906 243.660156 " fill-opacity="1" fill-rule="nonzero"/><path fill="#709bb6" d="M 274.589844 240.945312 L 271.46875 196.417969 L 257.460938 214.546875 L 266.136719 235.242188 L 271.433594 241.398438 L 274.589844 240.945312 " fill-opacity="1" fill-rule="nonzero"/><path fill="#b8d8ec" d="M 325.660156 126.296875 L 374.996094 115.957031 L 335.449219 133.820312 L 325.660156 126.296875 " fill-opacity="1" fill-rule="nonzero"/><g clip-path="url(#54d26110c5)"><path fill="#73a4c0" d="M 165.609375 150.664062 L 165.609375 42.769531 L 258.265625 124.890625 L 249.984375 187.414062 L 165.609375 150.664062 " fill-opacity="1" fill-rule="nonzero"/></g><g clip-path="url(#c6fabd061f)"><path fill="#5f96b2" d="M 165.609375 42.769531 L 165.609375 150.664062 L 210.09375 170.042969 L 165.609375 42.769531 " fill-opacity="1" fill-rule="nonzero"/></g><path fill="#73a4c0" d="M 118.210938 304.640625 L -0.0078125 275.695312 L 122.648438 268.570312 L 157.304688 288.835938 L 118.210938 304.640625 " fill-opacity="1" fill-rule="nonzero"/><path fill="#5b90ab" d="M 114.738281 269.03125 L 126.496094 284.699219 L 113.253906 303.421875 L 118.210938 304.640625 L 157.304688 288.835938 L 122.648438 268.570312 L 114.738281 269.03125 " fill-opacity="1" fill-rule="nonzero"/><g clip-path="url(#cc4561bff1)"><path fill="#b8d8ec" d="M 196.398438 332.058594 L 118.210938 304.640625 L 148.332031 282.066406 Z M 196.398438 332.058594 " fill-opacity="1" fill-rule="nonzero"/></g><g clip-path="url(#5f1437ecff)"><path fill="#a0cbde" d="M 196.398438 332.058594 L 194.75 330.171875 L 154.207031 278.300781 L 127.738281 297.5 L 196.398438 332.058594 " fill-opacity="1" fill-rule="nonzero"/></g><path fill="#92bcd7" d="M 271.46875 235.992188 L 253.144531 178.972656 L 215.347656 187.414062 Z M 271.46875 235.992188 " fill-opacity="1" fill-rule="nonzero"/><g clip-path="url(#67ebca15ce)"><path fill="#b8d8ec" d="M 24.089844 42.769531 L 122.648438 268.570312 L 196.394531 332.058594 L 212.082031 261.40625 L 284.324219 256.386719 L 232.441406 174.085938 L 24.089844 42.769531 " fill-opacity="1" fill-rule="nonzero"/></g><g clip-path="url(#88ac2a19d3)"><path fill="#92bcd7" d="M 24.089844 42.769531 L 209.625 258.554688 L 232.441406 174.085938 L 24.089844 42.769531 " fill-opacity="1" fill-rule="nonzero"/></g><path fill="#b8d8ec" d="M 209.625 258.554688 L 253.144531 201.925781 L 232.855469 172.695312 Z M 209.625 258.554688 " fill-opacity="1" fill-rule="nonzero"/><path fill="#92bcd7" d="M 209.816406 258.394531 L 147.320312 292.996094 L 121.402344 268.605469 Z M 209.816406 258.394531 " fill-opacity="1" fill-rule="nonzero"/><path fill="#92bcd7" d="M 374.996094 115.957031 L 330.5 130.015625 L 325.660156 126.296875 L 374.996094 115.957031 " fill-opacity="1" fill-rule="nonzero"/><g clip-path="url(#71fac54774)"><path fill="#a0cbde" d="M 228.84375 187.414062 L 93.0625 122.988281 L 24.089844 42.769531 L 231.382812 173.417969 L 228.84375 187.414062 " fill-opacity="1" fill-rule="nonzero"/></g><path fill="#5b90ab" d="M 251.414062 204.179688 L 209.816406 258.394531 L 255.890625 211.285156 Z M 251.414062 204.179688 " fill-opacity="1" fill-rule="nonzero"/><path fill="#5b90ab" d="M 209.816406 258.394531 L 155.671875 297 L 149.574219 291.75 Z M 209.816406 258.394531 " fill-opacity="1" fill-rule="nonzero"/></svg>